<svg xmlns="http://www.w3.org/2000/svg" version="1.1" xmlns:xlink="http://www.w3.org/1999/xlink" width="800" height="800"><svg xmlns="http://www.w3.org/2000/svg" version="1.1" xmlns:xlink="http://www.w3.org/1999/xlink" width="800" height="800"><svg xmlns="http://www.w3.org/2000/svg" viewBox="0 0 800 800"><path d="M650 66.67H250c-8.84 0-17.32 3.51-23.57 9.76L93.1 209.76a33.33 33.33 0 0 0-9.76 23.57v433.33c0 36.76 29.91 66.67 66.67 66.67h500c36.76 0 66.67-29.91 66.67-66.67V133.33c0-36.76-29.91-66.67-66.67-66.67ZM368.38 366.62c13.02 13.02 13.02 34.12 0 47.14-6.51 6.51-15.04 9.76-23.57 9.76s-17.06-3.25-23.57-9.76l-26.43-26.43-26.43 26.43c-6.51 6.51-15.04 9.76-23.57 9.76s-17.06-3.25-23.57-9.76c-13.02-13.02-13.02-34.12 0-47.14l26.43-26.43-26.43-26.43c-13.02-13.02-13.02-34.12 0-47.14s34.12-13.02 47.14 0l26.43 26.43 26.43-26.43c13.02-13.02 34.12-13.02 47.14 0s13.02 34.12 0 47.14l-26.43 26.43zm211 0c13.02 13.02 13.02 34.12 0 47.14-6.51 6.51-15.04 9.76-23.57 9.76s-17.06-3.25-23.57-9.76l-26.43-26.43-26.43 26.43c-6.51 6.51-15.04 9.76-23.57 9.76s-17.06-3.25-23.57-9.76c-13.02-13.02-13.02-34.12 0-47.14l26.43-26.43-26.43-26.43c-13.02-13.02-13.02-34.12 0-47.14s34.12-13.02 47.14 0l26.43 26.43 26.43-26.43c13.02-13.02 34.12-13.02 47.14 0s13.02 34.12 0 47.14l-26.43 26.43z" style="fill:#e8b931"></path></svg></svg><style>@media (prefers-color-scheme: light) { :root { filter: none; } }
@media (prefers-color-scheme: dark) { :root { filter: none; } }
</style></svg>